HIERARCHY
ROOT joint_0
{
	OFFSET 0.000000 0.000000 0.000000
	CHANNELS 6 Xposition Yposition Zposition Zrotation Yrotation Xrotation 
	JOINT joint_1
	{
		OFFSET 14.113007 -2.961990 123.953979
		CHANNELS 3 Zrotation Yrotation Xrotation
		JOINT joint_2
		{
			OFFSET 0.764000 -2.434006 113.871948
			CHANNELS 3 Zrotation Yrotation Xrotation
			JOINT joint_3
			{
				OFFSET 0.186996 -2.169998 113.753052
				CHANNELS 3 Zrotation Yrotation Xrotation
				JOINT joint_4
				{
					OFFSET 16.096001 -2.720001 160.853027
					CHANNELS 3 Zrotation Yrotation Xrotation
					JOINT joint_5
					{
						OFFSET 34.392006 -0.188995 92.567017
						CHANNELS 3 Zrotation Yrotation Xrotation
						End Site
						{
							OFFSET 0.000000 0.000000 0.000000
						}
					}
				}
				JOINT joint_6
				{
					OFFSET 9.183998 -36.684006 89.597046
					CHANNELS 3 Zrotation Yrotation Xrotation
					JOINT joint_7
					{
						OFFSET 0.486000 -164.365997 -28.984009
						CHANNELS 3 Zrotation Yrotation Xrotation
						JOINT joint_8
						{
							OFFSET 38.899002 -34.967010 -291.651978
							CHANNELS 3 Zrotation Yrotation Xrotation
							JOINT joint_9
							{
								OFFSET 41.714005 -45.890991 -258.857056
								CHANNELS 3 Zrotation Yrotation Xrotation
								End Site
								{
									OFFSET 0.000000 0.000000 0.000000
								}
							}
						}
					}
				}
				JOINT joint_10
				{
					OFFSET 8.867004 33.650002 90.817993
					CHANNELS 3 Zrotation Yrotation Xrotation
					JOINT joint_11
					{
						OFFSET 0.018997 164.299999 -29.368042
						CHANNELS 3 Zrotation Yrotation Xrotation
						JOINT joint_12
						{
							OFFSET 29.440994 30.887997 -293.216919
							CHANNELS 3 Zrotation Yrotation Xrotation
							JOINT joint_13
							{
								OFFSET 46.174011 54.490005 -256.422058
								CHANNELS 3 Zrotation Yrotation Xrotation
								End Site
								{
									OFFSET 0.000000 0.000000 0.000000
								}
							}
						}
					}
				}
			}
		}
	}
	JOINT joint_14
	{
		OFFSET -2.264000 -89.466995 -116.150024
		CHANNELS 3 Zrotation Yrotation Xrotation
		JOINT joint_15
		{
			OFFSET -16.400993 -17.452988 -493.781982
			CHANNELS 3 Zrotation Yrotation Xrotation
			JOINT joint_16
			{
				OFFSET -50.497004 -13.404022 -424.754013
				CHANNELS 3 Zrotation Yrotation Xrotation
				JOINT joint_17
				{
					OFFSET 198.546007 -19.341003 -89.309000
					CHANNELS 3 Zrotation Yrotation Xrotation
					End Site
					{
						OFFSET 0.000000 0.000000 0.000000
					}
				}
			}
		}
	}
	JOINT joint_18
	{
		OFFSET -0.867996 96.016006 -110.817993
		CHANNELS 3 Zrotation Yrotation Xrotation
		JOINT joint_19
		{
			OFFSET -10.130997 24.658998 -493.645020
			CHANNELS 3 Zrotation Yrotation Xrotation
			JOINT joint_20
			{
				OFFSET -48.871004 19.434999 -424.714005
				CHANNELS 3 Zrotation Yrotation Xrotation
				JOINT joint_21
				{
					OFFSET 195.579996 24.926001 -94.327003
					CHANNELS 3 Zrotation Yrotation Xrotation
					End Site
					{
						OFFSET 0.000000 0.000000 0.000000
					}
				}
			}
		}
	}
}
MOTION
Frames: 15
Frame Time: 0.016667
241.630000 -144.781010 1158.628050 -0.548753 5.926359 -2.046860 0.314045 -0.601163 2.198138 0.321930 0.063082 -0.443995 0.316600 -0.142863 0.343297 -0.658932 3.183629 1.707723 0.000000 0.000000 0.000000 5.072657 -0.364504 -2.275025 -0.260059 0.574176 -4.266547 2.561265 -10.777987 6.250898 0.000000 0.000000 0.000000 -1.985062 3.879433 6.272727 0.193329 4.389085 2.234813 -0.584005 -1.342285 -1.506086 0.000000 0.000000 0.000000 3.665798 -3.795162 1.349583 3.244284 7.167373 1.251226 3.524359 0.514530 1.604388 0.000000 0.000000 0.000000 -4.665972 -6.275179 1.215598 -3.634919 15.125647 -3.440790 -5.412097 -3.435648 -2.061910 0.000000 0.000000 0.000000 
247.684010 -144.563000 1160.837040 -1.124637 5.847545 -2.042777 0.399235 0.075927 1.928844 0.402856 -0.005662 -0.345367 0.401899 -0.027949 0.298868 -0.691898 3.307260 1.787995 0.000000 0.000000 0.000000 5.789357 -0.982974 -2.834787 -0.240781 0.084056 -4.336275 2.635748 -10.730853 7.035144 0.000000 0.000000 0.000000 -2.890369 3.862381 7.124897 0.105094 4.565105 2.602507 -0.896994 -2.116502 -2.291686 0.000000 0.000000 0.000000 3.944767 -3.936105 1.156740 3.434983 7.998066 1.494471 3.759736 0.886763 1.737835 0.000000 0.000000 0.000000 -4.592911 -9.091949 1.732379 -3.290876 20.976329 -4.569577 -6.122244 -2.972666 -2.395161 0.000000 0.000000 0.000000 
253.787990 -144.058000 1162.319950 -1.474226 5.779913 -2.035669 0.431537 0.715048 1.796034 0.461844 -0.017012 -0.241033 0.462858 0.070394 0.293957 -0.699370 3.412003 1.796332 0.000000 0.000000 0.000000 6.385577 -1.555621 -3.326164 -0.279347 -0.371664 -4.690030 2.747955 -10.871404 7.997399 0.000000 0.000000 0.000000 -3.806628 3.842250 7.666584 0.034998 4.734010 3.351168 -1.277662 -3.020249 -3.377882 0.000000 0.000000 0.000000 4.218466 -3.929659 0.879480 3.595619 8.608452 1.875232 3.973068 1.086226 1.841650 0.000000 0.000000 0.000000 -4.598842 -12.707474 2.408488 -3.167275 27.879194 -5.810108 -7.538903 -1.562847 -3.124412 0.000000 0.000000 0.000000 
259.911010 -143.311000 1163.239990 -1.836475 5.625119 -2.193906 0.460819 1.520021 2.048975 0.575089 -0.079756 -0.283948 0.580680 0.167153 0.312843 -0.690448 3.515187 1.757385 0.000000 0.000000 0.000000 6.907605 -2.110970 -3.781421 -0.362785 -0.814986 -5.219157 2.869696 -11.071746 9.071371 0.000000 0.000000 0.000000 -4.722712 3.790304 7.983726 0.002456 4.868346 4.374524 -1.683910 -4.030433 -4.626114 0.000000 0.000000 0.000000 4.528838 -3.762949 0.755365 3.777604 9.082833 2.284425 4.195251 1.229311 1.940388 0.000000 0.000000 0.000000 -4.399313 -16.704620 3.299985 -3.152255 35.184038 -6.915426 -9.601715 1.083893 -4.227727 0.000000 0.000000 0.000000 
266.571990 -142.037000 1163.213010 -2.361839 5.375965 -2.458302 0.478208 2.421450 2.517301 0.742909 -0.218105 -0.419188 0.761362 0.277773 0.359754 -0.677880 3.663090 1.710009 0.000000 0.000000 0.000000 7.361850 -2.683146 -4.161986 -0.477922 -1.281853 -5.916372 2.992755 -11.252503 10.207052 0.000000 0.000000 0.000000 -5.338402 3.653029 8.055689 0.021350 4.858035 5.523241 -2.044765 -5.031332 -5.782596 0.000000 0.000000 0.000000 4.850543 -3.345806 0.766198 4.005287 9.321683 2.589232 4.430987 1.238836 2.030341 0.000000 0.000000 0.000000 -3.809245 -20.343424 4.004101 -3.066877 41.658874 -7.432531 -11.753616 3.959996 -5.337324 0.000000 0.000000 0.000000 
273.954010 -140.024990 1161.948970 -2.938128 5.095936 -2.695094 0.414377 3.243512 3.007092 0.882371 -0.357984 -0.559477 0.920530 0.428556 0.450135 -0.652872 3.863965 1.635469 0.000000 0.000000 0.000000 7.798382 -3.337790 -4.476708 -0.629118 -1.828923 -6.849554 3.128408 -11.324752 11.556151 0.000000 0.000000 0.000000 -5.490625 3.383491 7.832023 0.087331 4.621464 6.787361 -2.350949 -5.951588 -6.851995 0.000000 0.000000 0.000000 5.105771 -2.631845 0.766881 4.243717 9.196198 2.771521 4.645802 1.012167 2.087450 0.000000 0.000000 0.000000 -2.908525 -23.608523 4.223542 -2.870481 47.388587 -7.298392 -13.747224 6.509821 -6.284970 0.000000 0.000000 0.000000 
281.872990 -137.485990 1159.738040 -3.515583 4.797988 -2.928369 0.296645 4.014352 3.540299 1.015562 -0.497505 -0.707551 1.082332 0.599619 0.564642 -0.619494 4.105619 1.543533 0.000000 0.000000 0.000000 8.166915 -4.025595 -4.690983 -0.809127 -2.417096 -7.955973 3.267446 -11.343597 12.972399 0.000000 0.000000 0.000000 -5.355824 3.001022 7.345882 0.194458 4.211852 8.189734 -2.617003 -6.801901 -7.870159 0.000000 0.000000 0.000000 5.282093 -1.718742 0.770202 4.489067 8.832830 2.876352 4.852077 0.613458 2.123050 0.000000 0.000000 0.000000 -1.765407 -26.735675 4.091626 -2.578185 52.649101 -6.653573 -15.561898 8.753142 -7.065678 0.000000 0.000000 0.000000 
290.302000 -134.778000 1157.078000 -4.098061 4.524516 -3.187529 0.218926 4.705322 4.049349 1.195259 -0.638856 -0.843986 1.298314 0.744063 0.660434 -0.608329 4.409174 1.512099 0.000000 0.000000 0.000000 8.319747 -4.604022 -4.703018 -0.967331 -2.939194 -9.029770 3.382926 -11.447719 13.952894 0.000000 0.000000 0.000000 -5.133521 2.545109 6.714849 0.322029 3.708981 9.609734 -2.825288 -7.546968 -8.642285 0.000000 0.000000 0.000000 5.392181 -0.819550 0.828012 4.726430 8.512574 2.908398 5.051076 0.147410 2.148479 0.000000 0.000000 0.000000 -0.500787 -29.652971 3.796061 -2.190983 57.038039 -5.637930 -16.754650 9.820917 -7.452827 0.000000 0.000000 0.000000 
299.195010 -132.030000 1153.949950 -4.604570 4.325394 -3.461793 0.218875 5.171880 4.487105 1.403654 -0.733702 -0.932096 1.538049 0.846050 0.721023 -0.628150 4.845674 1.563801 0.000000 0.000000 0.000000 8.179602 -5.043651 -4.426903 -1.094551 -3.382560 -10.113731 3.484815 -11.749236 14.376594 0.000000 0.000000 0.000000 -4.869519 1.978881 5.920914 0.457895 3.082766 11.115127 -2.988217 -8.128356 -9.237622 0.000000 0.000000 0.000000 5.409531 0.010135 0.955969 4.908836 8.259221 2.850303 5.194055 -0.375384 2.144229 0.000000 0.000000 0.000000 0.815789 -32.489876 3.355311 -1.717410 60.763628 -4.294210 -16.898677 8.783145 -7.239268 0.000000 0.000000 0.000000 
308.596980 -129.112000 1150.373050 -5.025483 4.199190 -3.721736 0.270772 5.449725 4.860955 1.605643 -0.784880 -0.987537 1.761668 0.929135 0.767131 -0.672517 5.352640 1.681593 0.000000 0.000000 0.000000 7.820782 -5.368883 -3.954773 -1.181756 -3.759470 -11.162822 3.573642 -12.150702 14.367218 0.000000 0.000000 0.000000 -4.496481 1.324845 4.960017 0.575005 2.345688 12.635964 -3.116679 -8.574937 -9.615198 0.000000 0.000000 0.000000 5.348358 0.798334 1.090767 5.046087 8.038425 2.735554 5.294974 -0.973385 2.114852 0.000000 0.000000 0.000000 2.055727 -35.234552 2.753456 -1.280409 63.816467 -2.869968 -16.360506 6.409913 -6.682960 0.000000 0.000000 0.000000 
318.614990 -125.990000 1146.891970 -5.449334 4.126964 -3.943281 0.366159 5.740946 5.134061 1.819797 -0.850390 -1.036139 1.994473 1.000342 0.802584 -0.750323 5.758354 1.882956 0.000000 0.000000 0.000000 7.324291 -5.496265 -3.487649 -1.177390 -3.978691 -11.812513 3.605864 -12.515151 13.781717 0.000000 0.000000 0.000000 -4.057692 0.738899 4.022994 0.630046 1.663375 13.801335 -3.188949 -9.021800 -9.393515 0.000000 0.000000 0.000000 5.313465 1.440903 1.143573 5.186500 8.056771 2.652793 5.420111 -1.617256 2.092007 0.000000 0.000000 0.000000 2.999605 -37.648134 2.169087 -1.053828 65.580994 -1.798187 -15.968828 4.268316 -6.268242 0.000000 0.000000 0.000000 
329.218990 -122.667000 1143.746950 -5.812298 4.151350 -4.058920 0.510863 6.054663 5.228698 2.050267 -0.916137 -1.060916 2.231440 1.056314 0.825512 -0.884836 5.985200 2.221631 0.000000 0.000000 0.000000 6.644561 -5.350822 -3.051906 -1.080912 -3.972905 -11.966820 3.549536 -12.876123 12.434139 0.000000 0.000000 0.000000 -3.577335 0.230601 3.112579 0.622264 1.045759 14.574408 -3.183509 -9.560401 -8.346050 0.000000 0.000000 0.000000 5.331141 1.860729 1.030320 5.309801 8.398343 2.639473 5.557745 -2.325918 2.069319 0.000000 0.000000 0.000000 3.565954 -39.719854 1.604067 -1.087191 65.802757 -1.159452 -15.947054 3.039773 -6.134454 0.000000 0.000000 0.000000 
340.437990 -119.139000 1140.698000 -6.109319 4.273138 -4.110236 0.696350 6.292409 5.190698 2.263931 -0.953230 -1.057950 2.431316 1.099369 0.835211 -1.052744 6.108222 2.640259 0.000000 0.000000 0.000000 5.842555 -5.007539 -2.589316 -0.936569 -3.799692 -11.769047 3.412994 -13.211907 10.522970 0.000000 0.000000 0.000000 -3.048211 -0.194377 2.234226 0.583418 0.501232 14.989972 -3.101034 -10.173847 -6.727535 0.000000 0.000000 0.000000 5.375664 2.104616 0.819298 5.399907 8.973197 2.663501 5.683390 -3.077202 2.038209 0.000000 0.000000 0.000000 3.805180 -41.481294 1.088996 -1.335559 64.747187 -0.844393 -16.103734 2.119496 -6.137238 0.000000 0.000000 0.000000 
352.463010 -115.364000 1137.567020 -6.486813 4.422458 -4.217054 0.872833 6.472594 5.130222 2.419732 -0.982721 -1.049967 2.564562 1.136802 0.834104 -1.184804 6.192522 2.973740 0.000000 0.000000 0.000000 5.151100 -4.596974 -2.196620 -0.758226 -3.545517 -11.187771 3.212433 -13.316918 8.458919 0.000000 0.000000 0.000000 -2.496662 -0.362244 1.629570 0.529937 0.214442 14.760711 -2.947103 -10.838539 -4.833789 0.000000 0.000000 0.000000 5.470747 2.242937 0.630438 5.499001 9.732378 2.710348 5.832755 -3.793600 2.020208 0.000000 0.000000 0.000000 3.705628 -42.774529 0.846896 -1.821050 62.607874 -0.903564 -16.594618 1.033620 -6.285179 0.000000 0.000000 0.000000 
365.284000 -111.248000 1134.571040 -7.006534 4.606746 -4.439539 1.012514 6.627773 5.093404 2.482560 -1.027639 -1.037358 2.601398 1.177090 0.820398 -1.244697 6.225372 3.136726 0.000000 0.000000 0.000000 4.674062 -4.165283 -1.868458 -0.540331 -3.239130 -10.166237 2.937026 -13.152928 6.203484 0.000000 0.000000 0.000000 -1.904087 -0.114526 1.409334 0.475789 0.342461 13.667256 -2.697756 -11.686451 -2.448041 0.000000 0.000000 0.000000 5.654653 2.255682 0.516781 5.636027 10.626362 2.760792 6.030374 -4.321319 2.040390 0.000000 0.000000 0.000000 3.210276 -43.544040 0.955114 -2.636464 59.161328 -1.342365 -17.452960 -0.300565 -6.584656 0.000000 0.000000 0.000000 
